<?xml version="1.0" standalone="no"?>
<!DOCTYPE svg PUBLIC "-//W3C//DTD SVG 20010904//EN"
 "http://www.w3.org/TR/2001/REC-SVG-20010904/DTD/svg10.dtd">
<svg version="1.0" xmlns="http://www.w3.org/2000/svg"
 width="1568.000000pt" height="1568.000000pt" viewBox="0 0 1568.000000 1568.000000"
 preserveAspectRatio="xMidYMid meet">
<metadata>
Created by potrace 1.14, written by Peter Selinger 2001-2017
</metadata>
<g transform="translate(0.000000,1568.000000) scale(0.100000,-0.100000)"
fill="#000000" stroke="none">
<path d="M7751 15501 c-46 -93 -83 -173 -82 -177 2 -4 -1 -10 -6 -13 -5 -3
-53 -95 -106 -203 -70 -143 -102 -198 -114 -199 -10 0 -27 -2 -38 -4 -11 -2
-33 -6 -50 -9 -16 -2 -30 -5 -30 -6 0 -1 -16 -3 -35 -5 -19 -1 -35 -3 -35 -4
0 -1 -20 -4 -44 -7 -25 -2 -56 -7 -70 -9 -14 -3 -46 -8 -71 -10 -25 -3 -56 -8
-70 -10 -40 -7 -82 -14 -130 -19 -25 -3 -55 -8 -66 -10 -64 -13 -117 -21 -172
-24 -20 -2 -17 -8 32 -54 30 -29 169 -165 309 -301 l255 -248 -8 -37 c-5 -20
-11 -55 -14 -77 -4 -22 -11 -66 -17 -97 -5 -32 -12 -70 -15 -85 -10 -62 -14
-89 -20 -113 -3 -14 -7 -45 -9 -69 -3 -24 -7 -52 -10 -61 -3 -10 -8 -33 -10
-51 -3 -19 -7 -45 -10 -59 -3 -14 -10 -52 -15 -85 -5 -33 -12 -70 -14 -82 -6
-27 15 -31 34 -8 7 8 16 13 20 10 5 -3 11 -1 14 4 3 4 32 21 63 37 32 16 60
32 61 37 2 4 11 7 21 7 9 0 21 4 26 9 6 5 54 32 108 60 216 114 295 155 350
184 l58 30 67 -35 c37 -20 121 -64 187 -99 66 -34 165 -87 220 -116 55 -30
121 -63 148 -75 26 -11 47 -25 47 -29 0 -5 9 -9 19 -9 11 0 27 -7 36 -16 24
-25 36 -6 25 41 -6 22 -13 63 -16 90 -4 28 -8 53 -10 56 -2 4 -6 24 -9 45 -4
22 -13 74 -20 117 -8 43 -14 81 -13 85 1 4 -1 14 -4 22 -3 8 -11 53 -18 100
-7 47 -14 94 -17 105 -2 11 -9 52 -16 92 l-13 72 255 249 c141 138 277 270
304 296 52 50 55 56 29 56 -10 0 -21 3 -25 6 -3 3 -27 8 -54 10 -51 4 -67 6
-213 29 -24 4 -68 11 -138 20 -18 3 -52 7 -75 10 -23 3 -53 8 -67 11 -14 3
-45 7 -70 10 -67 8 -81 10 -133 19 l-47 7 -187 379 c-103 209 -190 379 -193
379 -3 0 -43 -76 -89 -169z"/>
<path d="M8345 12923 c-3 -12 -8 -58 -11 -100 -3 -43 -7 -91 -9 -108 -7 -75
-16 -173 -20 -200 -2 -16 -7 -70 -11 -120 -3 -49 -8 -103 -9 -120 -12 -129
-18 -181 -22 -188 -3 -5 -17 -6 -32 -2 -14 4 -33 9 -41 11 -8 2 -46 13 -85 24
-38 12 -77 23 -85 25 -206 53 -268 68 -285 71 -40 6 -79 15 -86 19 -4 3 -24 7
-45 10 -22 3 -46 8 -54 11 -8 3 -28 8 -45 11 -16 3 -34 6 -40 8 -5 1 -29 6
-53 10 -23 4 -44 11 -47 15 -4 6 -11 67 -19 160 -3 25 -7 74 -11 110 -3 36 -8
88 -10 115 -2 28 -4 50 -5 50 -4 0 -11 78 -13 137 -1 38 -6 68 -11 68 -5 0
-76 -69 -158 -152 -82 -84 -203 -208 -270 -275 l-120 -123 -62 6 c-33 3 -74 7
-91 9 -16 2 -68 6 -115 10 -47 3 -99 8 -115 10 -38 5 -50 -3 -60 -40 -4 -16
-9 -34 -11 -40 -2 -5 -5 -19 -7 -30 -3 -11 -17 -60 -31 -110 -14 -49 -27 -99
-29 -110 -2 -11 -7 -27 -10 -35 -5 -14 -133 -481 -143 -525 -3 -11 -7 -31 -10
-44 -3 -14 -7 -28 -10 -33 -6 -9 -34 -115 -34 -127 0 -4 6 -8 13 -9 6 0 35 -3
62 -6 28 -3 79 -8 115 -11 36 -3 85 -8 110 -11 25 -3 61 -7 80 -9 85 -10 101
-13 108 -20 7 -6 26 -77 47 -175 2 -8 4 -15 5 -15 2 0 4 -12 13 -55 3 -14 8
-32 11 -40 3 -8 8 -26 10 -40 3 -14 15 -63 26 -109 24 -93 21 -100 -37 -102
-31 -1 -50 -4 -55 -8 -2 -1 -24 -4 -49 -6 -25 -2 -59 -7 -75 -10 -16 -2 -42
-7 -59 -10 -16 -3 -77 -17 -135 -31 -58 -14 -112 -27 -120 -29 -8 -2 -44 -13
-80 -25 -60 -20 -102 -37 -190 -77 -19 -9 -36 -14 -36 -12 -1 2 -11 -4 -21
-14 -11 -9 -23 -14 -26 -10 -4 3 -7 1 -7 -5 0 -7 -5 -12 -11 -12 -21 0 -149
-93 -214 -156 -126 -123 -178 -218 -239 -444 -14 -52 -53 -194 -86 -315 -33
-121 -63 -231 -66 -244 -3 -13 -22 -86 -44 -161 -21 -75 -41 -153 -44 -174 -4
-21 -8 -41 -10 -45 -16 -26 -25 -239 -12 -294 19 -79 96 -240 141 -293 6 -6
26 -31 45 -55 19 -24 47 -56 62 -71 14 -16 25 -28 22 -28 -2 0 15 -17 38 -37
23 -21 54 -49 68 -63 14 -14 48 -43 75 -65 28 -21 52 -42 55 -45 11 -12 183
-134 218 -155 9 -5 37 -23 62 -40 49 -33 64 -42 107 -66 179 -101 240 -135
278 -153 17 -7 92 -44 168 -80 135 -65 270 -124 392 -171 33 -12 74 -29 90
-35 17 -7 37 -14 45 -16 8 -2 23 -7 35 -13 22 -11 168 -62 230 -81 22 -7 45
-15 50 -19 6 -3 19 -7 29 -8 11 -2 25 -8 31 -13 7 -5 15 -7 18 -3 4 3 7 2 7
-2 0 -5 -121 -129 -270 -275 -148 -146 -339 -334 -425 -419 -108 -107 -153
-156 -144 -162 7 -4 20 -4 28 0 9 3 41 5 71 4 30 -2 71 -3 90 -2 50 1 71 1
107 -3 17 -2 30 -1 27 4 -4 7 20 5 79 -7 9 -2 17 0 17 5 0 4 16 4 35 0 21 -5
33 -4 29 1 -3 6 6 7 22 3 16 -4 33 -7 39 -6 22 3 122 2 152 -1 17 -2 30 0 27
5 -4 7 20 5 79 -7 9 -2 17 0 17 3 0 7 126 6 197 -1 17 -2 30 0 27 5 -4 7 20 5
79 -7 9 -2 17 0 17 3 0 4 30 6 67 4 38 -1 84 -2 103 -1 19 0 46 0 60 0 14 -1
36 -1 50 0 31 1 37 1 77 -4 17 -2 30 0 27 5 -4 7 20 5 79 -7 9 -2 17 0 17 3 0
4 30 6 67 4 86 -3 123 -3 148 2 11 2 28 -1 38 -6 11 -5 17 -5 17 1 0 6 9 7 22
2 12 -4 36 -5 53 -1 17 4 39 5 50 3 11 -3 31 -4 45 -3 30 2 36 2 77 -3 17 -2
30 0 27 5 -4 7 20 5 79 -7 9 -2 17 0 17 3 0 4 30 6 67 4 38 -1 84 -2 103 -1
19 0 46 0 60 0 14 -1 36 -1 50 0 31 1 37 1 77 -4 17 -2 30 0 27 5 -4 7 20 5
79 -7 9 -2 17 0 17 4 0 3 19 5 42 3 l42 -4 -148 143 c-82 79 -203 197 -270
262 l-121 119 50 -6 c28 -4 66 -9 85 -11 19 -2 55 -7 80 -10 77 -9 143 -16
190 -20 143 -10 226 -18 233 -22 4 -2 7 -2 7 1 0 3 21 81 46 173 25 92 48 174
49 183 2 8 25 89 50 180 25 91 48 173 50 183 2 10 7 27 10 37 3 10 8 27 10 37
3 10 18 68 35 128 51 182 52 189 25 191 -11 1 -51 5 -90 8 -139 12 -181 16
-225 22 -25 3 -61 8 -80 10 -19 1 -48 5 -65 8 -16 3 -52 8 -80 11 -27 3 -61 8
-75 11 -14 2 -41 6 -60 9 -19 3 -46 7 -60 10 -14 3 -44 8 -67 10 -24 2 -47 6
-51 9 -4 3 -26 7 -48 10 -21 3 -61 10 -89 16 -27 6 -61 12 -75 14 -14 2 -61
11 -105 21 -80 17 -109 30 -100 45 5 8 64 236 71 277 13 70 11 69 144 71 133
1 318 10 378 17 20 2 66 7 102 10 36 3 79 8 95 11 17 3 46 7 65 9 79 8 320 61
368 80 17 8 32 12 32 10 0 -9 186 63 260 99 73 36 163 90 186 111 6 5 22 17
34 25 41 27 142 134 180 190 35 52 90 161 90 179 0 5 7 26 17 47 9 22 17 50
19 63 2 13 6 31 10 40 8 19 11 29 16 56 2 11 7 26 11 33 5 6 6 16 2 21 -3 5
-1 12 5 16 6 4 8 10 5 15 -3 5 -1 11 4 15 6 3 8 12 4 20 -3 8 1 15 8 15 7 0
10 2 7 5 -2 3 3 35 13 73 50 191 62 227 72 234 9 6 9 8 -1 8 -9 0 -10 5 -3 19
6 10 7 21 4 25 -3 3 -1 6 5 6 6 0 9 9 7 20 -2 11 1 20 6 20 6 0 7 5 4 10 -4 6
-2 16 3 23 11 13 12 17 12 43 0 8 4 13 9 10 4 -3 6 6 3 19 -2 14 0 25 5 25 5
0 9 15 10 34 1 19 5 41 9 48 5 7 9 18 10 23 3 14 14 72 25 130 25 129 13 258
-34 370 -70 167 -239 363 -467 542 -95 74 -301 213 -317 213 -7 0 -13 4 -13 8
0 5 -28 23 -62 42 -35 18 -65 36 -68 39 -3 3 -45 26 -95 51 -49 25 -91 48 -93
53 -2 4 -12 7 -22 7 -10 0 -20 3 -22 8 -3 6 -74 44 -88 47 -3 0 -31 13 -64 28
-51 24 -58 30 -52 49 7 23 12 45 20 83 2 11 14 58 26 105 l21 84 -78 74 c-43
41 -168 161 -278 267 -110 106 -260 251 -334 321 -74 71 -171 165 -217 210
-76 74 -83 79 -89 57z m-800 -1846 c17 -2 84 -19 150 -37 66 -18 125 -33 130
-34 6 -1 37 -11 70 -20 76 -23 89 -27 92 -27 2 0 40 -13 85 -28 l83 -28 -3
-49 c-1 -27 -3 -70 -5 -96 -3 -64 -11 -69 -82 -58 -55 8 -116 15 -235 25 -25
2 -74 7 -110 10 -36 3 -93 7 -127 9 -71 5 -82 9 -81 34 1 16 -8 104 -17 167
-3 17 -7 58 -10 93 -4 57 -3 62 13 53 9 -5 31 -11 47 -14z m590 -459 c-3 -24
-8 -70 -10 -103 -3 -33 -8 -85 -10 -115 -3 -30 -7 -75 -10 -100 -2 -25 -7 -76
-11 -115 -6 -75 -10 -117 -18 -205 -3 -30 -8 -84 -11 -120 -3 -36 -8 -83 -10
-105 -2 -22 -7 -71 -10 -110 -5 -62 -18 -91 -35 -80 -4 2 -40 7 -80 10 -41 3
-77 8 -81 11 -4 2 -10 -4 -13 -13 -11 -38 -29 -113 -39 -158 -2 -5 -5 -14 -9
-20 -5 -9 -12 -38 -23 -95 -3 -14 -9 -36 -14 -50 -6 -14 -20 -63 -32 -110 -24
-93 -38 -129 -38 -95 1 11 -2 43 -5 70 -8 63 -14 131 -21 220 -3 39 -8 86 -11
105 -3 19 -7 65 -10 103 l-4 67 27 -5 c16 -2 56 -7 91 -10 34 -3 68 -6 74 -8
12 -2 24 30 54 143 8 30 19 69 24 85 5 17 11 41 14 55 6 27 85 316 93 340 3 8
7 22 9 30 4 24 12 55 14 58 2 1 4 7 5 12 1 6 3 11 4 13 2 1 4 12 7 24 3 18 59
225 80 296 10 32 15 18 9 -25z m1028 -118 c158 -78 257 -130 267 -140 3 -3 25
-16 50 -29 170 -91 444 -286 569 -404 71 -68 161 -166 161 -176 0 -7 -44 -29
-70 -35 -3 -1 -9 -4 -15 -7 -8 -5 -75 -29 -95 -34 -3 -1 -12 -4 -20 -8 -13 -5
-77 -23 -115 -33 -68 -17 -155 -37 -172 -40 -13 -2 -35 -6 -50 -9 -16 -3 -44
-8 -63 -11 -19 -2 -46 -7 -60 -10 -23 -4 -47 -7 -165 -19 -66 -8 -216 -17
-277 -19 -32 0 -58 -5 -58 -9 0 -5 -5 -5 -12 -1 -6 4 -32 6 -57 5 -98 -6 -233
-6 -241 -1 -8 5 2 68 17 110 3 8 7 26 9 39 2 13 6 31 10 40 4 9 8 25 9 36 1
11 9 45 18 75 9 30 18 66 21 80 2 14 14 61 25 106 22 82 28 109 37 154 2 14 7
32 10 40 5 13 59 223 69 270 12 53 28 110 32 110 2 0 77 -36 166 -80z m-2623
-864 c0 5 83 10 184 12 l184 2 7 -27 c5 -16 9 -33 10 -39 2 -6 13 -51 25 -100
12 -49 23 -96 25 -104 2 -8 18 -71 35 -140 31 -121 35 -141 44 -177 8 -35 28
-118 31 -133 2 -8 20 -80 40 -160 20 -80 38 -150 39 -157 1 -7 5 -15 8 -19 4
-3 4 -12 2 -19 -3 -7 -1 -22 5 -33 5 -10 12 -30 15 -43 2 -13 9 -46 15 -73 7
-27 10 -50 8 -52 -4 -4 -176 60 -232 86 -55 25 -175 71 -181 70 -4 -1 -10 2
-13 7 -3 5 -51 28 -106 52 -55 24 -109 50 -120 57 -11 8 -27 14 -36 14 -10 0
-19 5 -21 11 -2 5 -11 11 -20 13 -10 1 -20 5 -23 8 -3 3 -41 23 -83 44 -42 21
-79 40 -82 44 -3 3 -18 12 -35 20 -16 8 -32 17 -35 20 -3 3 -16 11 -30 18 -14
7 -43 23 -65 37 -22 14 -50 31 -62 37 -13 6 -23 15 -23 20 0 4 -6 8 -14 8 -8
0 -28 11 -44 25 -17 14 -33 25 -36 25 -7 0 -178 125 -225 165 -109 91 -261
244 -261 264 0 5 26 19 58 31 98 38 188 69 213 74 13 3 39 9 57 15 17 5 32 8
32 5 0 -3 8 0 18 5 10 5 38 12 62 16 25 4 47 8 50 10 3 2 26 6 50 10 25 3 52
8 60 10 13 3 46 8 160 21 19 2 51 6 70 9 19 3 73 7 119 10 47 3 87 7 89 10 3
3 11 0 19 -6 7 -6 13 -8 13 -3z m1290 -1190 c36 -2 67 -5 70 -6 3 -1 12 -3 20
-4 15 -1 15 -11 5 -119 -3 -21 -7 -42 -10 -47 -3 -5 -1 -11 5 -15 6 -4 7 -12
3 -18 -4 -7 -8 -27 -9 -45 -2 -19 -4 -36 -6 -38 -2 -2 -31 5 -64 15 -32 10
-63 18 -69 19 -5 1 -11 10 -11 19 -1 10 -4 36 -7 58 -4 22 -9 75 -13 118 -5
63 -4 76 7 72 8 -3 43 -7 79 -9z"/>
<path d="M6276 6032 c-10 -2 -32 -19 -48 -38 -17 -19 -61 -67 -99 -106 -38
-39 -69 -73 -69 -74 0 -2 -26 -30 -57 -63 -32 -32 -101 -105 -153 -162 -52
-57 -125 -135 -162 -174 l-67 -70 2196 -3 c1208 -1 2198 0 2200 2 3 2 -13 22
-34 44 -41 43 -271 284 -423 446 -52 55 -111 117 -131 137 l-35 37 -115 2
c-62 1 -380 3 -706 5 -325 1 -596 6 -602 10 -6 3 -11 1 -11 -5 0 -6 -5 -8 -11
-4 -10 6 -120 9 -144 4 -5 -1 -12 -2 -15 -1 -3 1 -336 4 -740 7 -404 2 -739 5
-745 7 -5 2 -18 1 -29 -1z"/>
<path d="M6325 4625 c-121 -26 -206 -73 -283 -152 -68 -72 -125 -184 -138
-271 -3 -20 -7 -43 -10 -51 -6 -20 -6 -209 1 -256 10 -65 43 -170 69 -215 33
-58 108 -149 124 -150 6 0 12 -4 12 -8 0 -11 127 -74 175 -88 119 -33 332 -29
445 8 19 7 37 12 40 13 12 1 121 58 160 83 2 2 4 117 5 257 l0 255 -37 1 c-21
0 -87 0 -148 0 -60 0 -139 0 -174 0 l-64 -1 -1 -60 c0 -33 5 -63 11 -66 10 -6
165 -9 186 -4 4 1 12 1 17 0 6 -1 19 -3 30 -4 19 -1 20 -8 21 -151 0 -156 -2
-179 -17 -169 -5 3 -9 0 -9 -5 0 -6 -9 -11 -20 -11 -11 0 -20 -4 -20 -8 0 -5
-6 -9 -12 -9 -7 -1 -35 -6 -63 -11 -45 -10 -228 -9 -265 1 -98 26 -177 79
-227 152 -26 38 -61 139 -68 197 -13 104 -4 262 20 333 26 78 38 100 85 154
78 90 257 137 415 110 62 -11 171 -45 189 -60 41 -33 116 -76 117 -66 4 56 3
135 -3 148 -12 28 -129 77 -249 105 -53 13 -256 12 -314 -1z"/>
<path d="M7204 4604 c3 -8 2 -14 -2 -14 -4 0 -7 -13 -7 -30 0 -16 3 -30 6 -30
3 0 3 -20 -1 -45 -4 -25 -3 -45 2 -45 5 0 6 -5 3 -11 -11 -16 -12 -69 -3 -69
5 0 5 -8 1 -17 -10 -20 -10 -94 0 -109 3 -5 2 -16 -3 -24 -5 -8 -5 -22 1 -32
5 -10 6 -18 2 -18 -4 0 -8 -25 -8 -55 0 -30 2 -55 5 -55 3 0 5 -18 5 -40 0
-22 -3 -40 -6 -40 -7 0 -2 -68 7 -82 4 -7 3 -8 -4 -4 -7 4 -10 2 -8 -6 3 -7 7
-40 11 -73 6 -65 8 -74 20 -120 19 -71 105 -195 135 -195 5 0 10 -4 10 -8 0
-7 80 -45 102 -48 5 -1 9 -2 11 -4 18 -15 249 -21 318 -8 105 21 201 94 247
188 59 120 59 128 61 587 l2 422 -80 -1 c-45 0 -81 -3 -82 -7 0 -3 -2 -190 -3
-416 -2 -373 -5 -438 -23 -485 -3 -8 -7 -21 -9 -28 -5 -28 -57 -83 -101 -109
-41 -24 -59 -28 -138 -30 -49 -1 -110 3 -134 10 -63 17 -123 74 -151 144 -23
57 -23 65 -26 478 -2 231 -3 426 -4 432 0 9 -23 13 -81 12 -65 -1 -79 -4 -75
-15z"/>
<path d="M8410 4025 l0 -594 370 0 371 0 -3 67 -3 67 -288 0 -287 0 0 528 0
527 -80 0 -80 0 0 -595z"/>
<path d="M9319 4608 c-3 -44 -4 -1146 0 -1161 3 -16 13 -17 80 -15 l76 3 0 60
c1 33 4 66 9 73 4 6 3 12 -1 12 -5 0 -7 26 -6 58 2 31 3 62 3 67 0 6 -1 72 -2
148 -2 75 -1 138 2 138 3 1 100 3 215 4 116 2 220 3 231 4 20 1 22 7 23 69 l1
67 -237 0 -236 0 -1 172 c-1 145 1 172 14 175 8 2 127 3 263 2 l249 -1 -4 29
c-3 16 -1 31 4 34 5 3 5 10 2 16 -4 6 -7 20 -8 32 -1 21 -3 21 -338 24 -267 2
-338 0 -339 -10z"/>
<path d="M3560 2949 c-73 -20 -140 -49 -140 -61 0 -4 -5 -8 -11 -8 -16 0 -118
-102 -119 -117 0 -7 -3 -13 -8 -13 -6 0 -42 -70 -47 -90 0 -3 -6 -21 -12 -40
-20 -59 -26 -111 -26 -210 -1 -85 2 -116 17 -185 20 -94 93 -211 173 -276 36
-30 133 -72 195 -85 78 -16 219 -15 276 2 23 6 42 10 42 7 0 -3 6 0 13 6 8 6
17 8 20 4 4 -3 7 -1 7 6 0 7 4 10 9 7 4 -3 32 9 61 27 l54 32 0 68 c1 38 -1
70 -5 73 -3 2 -15 -5 -25 -14 -25 -23 -124 -83 -124 -76 0 4 -6 2 -13 -4 -21
-18 -144 -34 -210 -29 -157 13 -258 89 -308 232 -23 67 -30 110 -29 207 0 134
24 223 81 303 30 42 111 104 141 109 7 1 19 5 26 9 6 5 12 5 12 1 0 -3 6 -2
13 3 14 11 176 10 222 -1 49 -12 115 -44 166 -81 27 -19 50 -35 52 -35 6 0 0
137 -7 148 -12 19 -129 71 -197 86 -78 19 -223 16 -299 -5z"/>
<path d="M4630 2960 c-14 -4 -33 -6 -42 -4 -10 1 -18 -2 -18 -7 0 -5 -7 -9
-15 -9 -31 0 -117 -52 -163 -98 -78 -77 -125 -165 -150 -277 -9 -41 -8 -272 1
-315 23 -108 87 -223 159 -284 35 -31 123 -84 143 -87 2 0 28 -7 56 -14 77
-21 259 -12 309 15 10 5 20 6 24 3 3 -3 6 -2 6 3 0 6 15 15 33 22 70 25 189
170 218 264 29 95 33 126 32 238 0 87 -7 175 -13 175 -1 0 -3 7 -5 15 -7 33
-46 122 -71 162 -50 79 -151 158 -229 179 -22 6 -49 14 -60 17 -32 8 -188 10
-215 2z m200 -123 c47 -15 112 -59 144 -98 31 -36 73 -126 81 -171 3 -17 8
-35 11 -40 6 -10 7 -205 0 -233 -36 -165 -113 -270 -226 -308 -52 -17 -169
-20 -214 -4 -115 39 -212 162 -233 297 -10 70 -9 216 3 263 7 26 11 47 8 47
-16 0 65 140 101 175 78 75 218 106 325 72z"/>
<path d="M11351 2959 c-59 -11 -128 -38 -175 -67 -48 -30 -122 -105 -143 -146
-9 -17 -19 -33 -23 -36 -7 -5 -39 -99 -46 -133 -2 -10 -6 -28 -10 -39 -3 -11
-6 -62 -6 -112 0 -78 3 -111 16 -193 1 -7 5 -16 9 -19 4 -4 7 -16 7 -27 0 -27
47 -113 93 -169 51 -63 155 -132 213 -141 11 -1 25 -6 32 -11 8 -5 64 -10 126
-12 91 -3 126 0 186 17 41 11 79 24 85 29 5 4 13 9 18 9 13 1 72 33 78 43 5 8
5 136 0 145 0 2 -22 -13 -48 -33 -40 -30 -98 -62 -98 -53 0 1 -11 -4 -25 -11
-14 -8 -38 -16 -55 -19 -45 -8 -175 -7 -213 2 -91 21 -189 96 -214 165 -7 17
-16 32 -20 32 -4 0 -7 3 -6 8 1 4 -4 27 -11 52 -18 62 -23 214 -9 291 14 81
46 155 89 203 33 39 97 84 128 91 9 3 33 9 54 14 42 10 163 9 217 -3 43 -10
142 -60 176 -89 14 -12 29 -20 32 -17 4 3 7 36 7 73 l1 69 -66 33 c-36 18 -81
36 -100 41 -19 4 -42 10 -50 12 -30 8 -206 9 -249 1z"/>
<path d="M10581 2938 c-3 -9 -6 -211 -5 -448 0 -236 -3 -427 -7 -423 -4 5 -26
44 -49 88 -24 44 -51 95 -62 113 -11 17 -16 32 -11 32 4 0 3 4 -3 8 -9 7 -23
30 -106 192 -18 36 -35 67 -38 70 -3 3 -27 48 -54 100 -28 52 -71 136 -97 185
l-48 90 -100 3 -100 3 0 -541 0 -540 62 0 c34 0 67 4 72 8 7 4 10 162 10 444
-1 241 2 435 6 430 4 -4 22 -36 41 -72 70 -131 127 -237 183 -345 32 -60 70
-132 85 -160 15 -27 53 -99 85 -160 32 -60 63 -118 69 -127 9 -15 26 -18 110
-18 91 0 98 1 93 19 -2 10 0 26 5 35 5 9 5 16 1 16 -5 0 -7 21 -5 48 3 60 3
62 -1 92 -2 14 1 31 6 38 6 7 6 12 0 12 -10 0 -9 112 1 129 4 6 4 11 -1 11 -4
0 -8 18 -8 40 0 22 4 40 9 40 5 0 4 6 -1 13 -5 6 -7 32 -6 57 4 56 4 55 1 113
-2 27 0 51 5 54 4 2 4 10 0 16 -4 6 -7 21 -7 32 0 11 3 26 7 32 4 6 3 14 -2
17 -6 4 -6 18 -1 36 5 17 6 30 2 30 -4 0 -7 16 -7 35 0 19 4 35 8 35 5 0 5 6
1 12 -12 19 -12 48 -1 48 6 0 6 5 0 13 -5 6 -8 22 -7 34 1 20 -4 22 -64 25
-53 2 -66 0 -71 -14z"/>
<path d="M12047 2940 c-2 -8 -3 -251 -3 -540 l1 -525 263 -3 262 -2 0 62 0 63
-190 -1 -190 0 2 195 3 196 188 0 187 0 0 61 0 61 -172 1 c-95 0 -181 0 -190
1 -16 1 -18 16 -18 160 l0 159 173 1 c94 0 180 0 190 1 14 0 17 10 17 60 l0
59 -259 3 c-224 3 -260 1 -264 -12z"/>
<path d="M5458 2943 c-2 -5 -4 -246 -3 -538 l1 -530 70 -3 71 -3 -1 56 c-1 30
2 55 7 55 4 0 5 6 0 13 -11 17 -11 119 0 135 5 6 6 12 1 12 -5 0 -9 18 -9 40
0 22 4 40 8 40 5 0 5 5 1 12 -11 17 -12 78 -2 84 5 3 5 10 1 16 -10 17 -9 138
1 138 5 0 4 6 -1 13 -5 6 -7 44 -6 82 4 87 4 77 0 158 -3 72 6 96 18 49 7 -27
28 -81 46 -114 5 -10 9 -24 9 -31 0 -7 9 -32 20 -55 11 -22 21 -49 23 -59 2
-10 11 -35 20 -57 9 -21 17 -42 17 -47 0 -5 4 -17 10 -27 5 -9 23 -55 41 -102
17 -47 34 -94 39 -105 5 -11 14 -37 21 -57 8 -25 19 -38 31 -39 10 0 43 -1 75
-1 l56 -1 45 124 c25 68 49 126 54 127 4 2 6 8 3 12 -3 5 -1 17 5 27 5 10 37
92 71 183 33 91 66 179 73 195 8 17 16 37 19 45 3 9 6 6 7 -10 2 -28 1 -124
-1 -137 -1 -4 -1 -10 1 -13 6 -17 4 -170 -3 -170 -5 0 -5 -5 -1 -11 8 -14 10
-187 1 -195 -3 -3 -3 -12 0 -20 9 -23 9 -254 0 -254 -5 0 -5 -5 -1 -12 4 -6 7
-31 7 -55 l-1 -44 72 3 71 3 0 535 0 535 -109 0 c-118 0 -125 -4 -137 -73 0
-4 -6 -16 -12 -27 -6 -11 -12 -25 -13 -30 -1 -6 -13 -40 -27 -75 -14 -36 -27
-72 -29 -80 -2 -8 -5 -17 -8 -20 -7 -6 -31 -87 -30 -96 1 -4 -2 -10 -7 -13 -8
-5 -37 -78 -96 -243 -12 -32 -24 -58 -28 -58 -3 0 -14 21 -23 48 -10 26 -31
83 -48 127 -16 44 -39 105 -50 135 -11 30 -24 64 -28 75 -5 11 -32 83 -60 159
-28 77 -56 148 -61 158 -8 16 -24 18 -114 18 -57 0 -105 -3 -107 -7z"/>
<path d="M6734 2411 l0 -541 68 0 c37 0 69 4 73 9 4 8 7 135 5 256 0 11 1 53
2 94 l3 75 130 2 c174 4 213 11 280 52 54 33 83 65 105 115 47 106 40 250 -15
337 -33 51 -63 76 -130 107 -59 27 -64 27 -290 31 l-230 4 -1 -541z m416 408
c73 -22 121 -91 125 -178 4 -97 -27 -156 -101 -192 -38 -18 -66 -22 -153 -24
-58 -1 -113 0 -123 3 -15 3 -16 26 -16 203 l0 200 126 -4 c70 -2 134 -6 142
-8z"/>
<path d="M7630 2880 c-1 -38 -1 -266 -1 -505 0 -239 0 -451 1 -470 l0 -35 335
0 336 0 -3 62 -3 62 -257 0 c-177 -1 -258 3 -261 10 -2 6 -3 221 -3 479 l1
467 -72 0 -73 0 0 -70z"/>
<path d="M8452 2410 l-1 -540 74 1 73 1 0 539 0 539 -73 0 -72 0 -1 -540z"/>
<path d="M9151 2911 c-11 -31 -64 -170 -143 -376 -11 -27 -21 -54 -22 -60 -2
-5 -8 -23 -15 -40 -6 -16 -21 -55 -32 -85 -12 -30 -25 -64 -30 -75 -5 -11 -21
-51 -35 -90 -55 -151 -82 -222 -98 -259 -9 -21 -16 -42 -16 -47 0 -5 33 -9 74
-9 76 0 83 4 91 50 0 3 6 14 11 25 6 11 14 32 18 47 3 15 11 40 18 55 13 33
12 30 22 66 5 15 11 28 15 29 3 0 115 2 249 3 169 2 242 -1 242 -9 0 -10 12
-45 73 -208 l22 -58 72 0 c74 0 81 4 64 38 -5 9 -24 58 -42 107 -18 50 -38
104 -45 120 -14 33 -35 90 -114 300 -29 77 -58 154 -65 170 -7 17 -26 66 -43
110 -16 44 -33 89 -37 100 -5 11 -9 23 -10 28 -2 4 -4 9 -5 12 -1 3 -3 8 -4
13 -1 4 -10 24 -19 45 l-16 38 -84 -2 -84 -2 -12 -36z m118 -154 c15 -48 40
-119 51 -142 5 -11 36 -93 69 -182 l59 -163 -199 0 -199 0 16 38 c9 20 17 45
18 55 0 9 4 17 8 17 4 0 8 4 8 9 0 5 5 22 12 38 6 15 12 33 13 39 3 12 91 251
108 294 6 14 9 29 8 33 -5 24 20 -8 28 -36z"/>
<path d="M7976 1423 c-1 -1 -22 -5 -47 -8 -44 -5 -84 -12 -84 -15 0 -1 -11 -3
-24 -6 -77 -14 -218 -124 -257 -202 -11 -20 -22 -38 -26 -40 -5 -2 -8 -12 -8
-21 0 -10 -3 -21 -7 -25 -4 -3 -8 -12 -9 -19 -2 -7 -9 -41 -17 -77 -14 -64
-15 -237 -2 -290 3 -14 9 -38 11 -54 21 -112 135 -254 247 -307 93 -43 146
-53 277 -53 129 1 207 18 316 70 83 39 81 30 79 279 -1 121 -3 223 -4 227 0 3
-85 6 -188 5 l-188 -2 0 -59 0 -60 117 1 116 0 4 -46 c3 -25 2 -50 -1 -56 -6
-9 -6 -32 -1 -45 6 -15 5 -69 -1 -91 -4 -15 -3 -31 3 -37 12 -12 -25 -33 -97
-53 -45 -12 -225 -17 -265 -6 -62 16 -79 23 -109 39 -130 73 -194 259 -167
486 7 59 16 102 25 117 3 6 6 15 7 22 4 27 69 106 112 138 41 30 81 45 157 61
42 9 167 4 220 -9 55 -13 159 -64 195 -94 27 -23 43 -10 41 32 -5 101 -4 97
-51 122 -35 18 -115 47 -160 58 -36 9 -208 24 -214 18z"/>
<path d="M4802 1400 c-12 -8 -8 -1064 3 -1071 6 -3 156 -5 335 -5 l325 1 0 60
0 60 -260 0 -260 0 0 460 c1 253 -2 469 -5 480 -4 17 -13 20 -68 20 -35 0 -67
-2 -70 -5z"/>
<path d="M5635 1398 c-17 -10 -19 -1064 -1 -1071 6 -2 162 -3 346 -3 l335 1 1
61 1 60 -273 0 c-237 -1 -274 1 -275 14 -1 20 -1 318 0 351 l1 25 250 0 c138
-1 250 3 250 7 0 5 3 6 8 4 8 -6 8 100 -1 109 -3 4 -120 6 -259 6 l-253 0 1
156 c2 138 4 157 18 156 9 -1 16 2 16 7 0 6 7 6 18 0 11 -6 24 -6 35 0 11 7
17 7 17 0 0 -6 11 -6 29 -1 15 4 34 4 42 0 7 -5 21 -4 30 1 11 6 20 5 24 -1 4
-6 15 -6 30 0 14 5 25 6 25 2 0 -4 11 -7 25 -7 14 0 25 3 25 7 0 4 11 3 24 -2
15 -5 27 -5 34 2 6 6 12 6 16 -1 5 -7 15 -7 31 -1 14 5 25 6 25 2 0 -7 11 -7
65 -3 12 1 14 105 2 117 -10 10 -644 11 -662 2z"/>
<path d="M6832 1381 c-12 -13 -20 -26 -17 -29 3 -3 0 -11 -6 -19 -6 -7 -8 -13
-5 -13 4 0 1 -10 -6 -22 -6 -13 -13 -27 -14 -33 -1 -5 -23 -64 -49 -130 -26
-66 -48 -124 -50 -130 -1 -5 -7 -21 -13 -35 -6 -14 -36 -92 -67 -175 -99 -261
-136 -359 -150 -390 -7 -16 -16 -41 -20 -55 -6 -25 -6 -25 67 -27 71 -1 74 0
85 25 24 59 64 170 68 190 2 11 8 30 14 41 11 19 21 20 251 21 218 0 240 -1
248 -17 5 -10 28 -72 51 -138 l42 -120 75 -1 c66 -2 75 0 71 15 -3 9 -19 52
-35 96 -17 44 -38 103 -49 130 -10 28 -22 53 -28 57 -5 4 -7 8 -3 8 4 0 -9 39
-28 88 -20 48 -40 103 -46 122 -5 19 -15 41 -20 48 -6 6 -7 12 -4 12 4 0 0 12
-8 28 -8 15 -24 54 -36 87 -11 33 -25 69 -30 80 -5 11 -23 58 -40 105 -45 122
-73 194 -77 199 -2 3 -36 5 -76 5 -64 1 -75 -1 -95 -23z m131 -241 c3 -8 27
-71 52 -140 25 -69 48 -132 52 -140 3 -8 7 -19 8 -25 2 -5 12 -33 23 -61 l21
-52 -198 1 c-196 0 -198 0 -193 21 3 12 8 26 12 31 8 11 34 88 31 93 -1 1 6
16 14 32 8 16 35 85 59 152 24 68 52 141 62 163 l17 40 17 -50 c9 -27 19 -57
23 -65z"/>
<path d="M8677 1395 c-2 -5 -2 -176 -2 -380 2 -311 5 -380 19 -435 37 -145
125 -231 271 -267 37 -9 200 -10 235 -1 19 5 46 11 60 14 24 5 89 40 121 66
52 43 110 162 115 238 1 19 3 35 4 35 5 0 4 709 -1 724 -6 14 -18 17 -68 16
-34 -1 -64 -5 -68 -9 -5 -4 -8 -173 -9 -374 -1 -202 -4 -382 -8 -400 -20 -102
-82 -173 -164 -191 -61 -13 -179 -6 -223 13 -51 21 -96 77 -116 144 -14 49
-17 109 -18 429 -1 205 -5 376 -9 380 -11 11 -135 9 -139 -2z"/>
<path d="M9779 1385 c-3 -100 -3 -1055 1 -1056 3 -1 159 -3 348 -4 l342 -2 1
29 c1 15 1 39 1 53 0 14 0 29 -1 33 -1 4 -119 7 -263 7 -145 0 -268 1 -273 2
-7 2 -10 73 -10 196 l0 192 255 0 255 1 2 57 c3 44 0 59 -12 63 -8 4 -124 7
-258 8 l-242 1 0 155 c0 86 4 158 9 162 5 3 19 2 31 -2 14 -5 27 -4 33 2 6 6
12 6 16 -1 5 -7 15 -7 31 -1 14 5 25 6 25 2 0 -4 11 -7 25 -7 14 0 25 3 25 7
0 4 11 3 25 -2 15 -6 26 -6 30 1 4 5 13 6 22 1 8 -5 33 -6 54 -2 21 4 39 5 39
1 0 -3 11 -6 25 -6 14 0 25 4 25 8 0 4 8 3 18 -2 10 -5 24 -6 32 -1 8 5 21 5
30 0 23 -12 44 4 37 29 -3 12 -1 24 4 27 5 3 5 12 -1 23 -6 12 -5 22 2 29 15
15 47 14 -345 15 -331 2 -337 2 -338 -18z"/>
</g>
</svg>
