<?xml version="1.0" encoding="utf-8"?>
<!-- Generator: Adobe Illustrator 24.3.0, SVG Export Plug-In . SVG Version: 6.00 Build 0)  -->
<svg version="1.1" id="Layer_1" xmlns="http://www.w3.org/2000/svg" xmlns:xlink="http://www.w3.org/1999/xlink" x="0px" y="0px"
	 viewBox="0 0 360 70.8" style="enable-background:new 0 0 360 70.8;" xml:space="preserve">
<style type="text/css">
	.st0{fill:#602700;}
	.st1{fill:#FFC49C;}
</style>
<g>
	<path class="st0" d="M360,17.6v35.6c0,9.7-7.9,17.6-17.6,17.6H17.6C7.9,70.8,0,62.9,0,53.2V17.6C0,7.9,7.9,0,17.6,0h324.8
		C352.1,0,360,7.9,360,17.6z"/>
	<g>
		<path class="st1" d="M69.2,48.8H66L54.3,30.6h-0.1l0.1,1.2c0.1,1.8,0.2,3.4,0.2,4.7v12.2h-2.5V26.9h3.2l0.7,1.1l7.2,11.1l3.8,6
			h0.1c0-0.2-0.1-1.1-0.1-2.6s-0.1-2.5-0.1-3.2V26.9h2.6V48.8z"/>
		<path class="st1" d="M98.3,37.8c0,3.5-0.9,6.3-2.7,8.3c-1.9,2.1-4.6,3.2-7.4,3c-2.8,0.2-5.6-0.9-7.5-3c-1.8-2-2.7-4.8-2.7-8.4
			s0.9-6.3,2.6-8.3s4.3-3,7.5-3c2.8-0.2,5.5,0.9,7.4,3C97.4,31.5,98.3,34.3,98.3,37.8z M81,37.8c0,2.9,0.6,5.1,1.8,6.6
			c2.9,3,7.6,3,10.6,0.1c0,0,0.1-0.1,0.1-0.1c1.2-1.5,1.8-3.7,1.8-6.7c0-2.9-0.6-5.1-1.8-6.6c-1.3-1.5-3.3-2.3-5.3-2.2
			c-2.1-0.1-4.1,0.7-5.4,2.3C81.6,32.7,81,34.9,81,37.8z"/>
		<path class="st1" d="M109.6,45.2l0.2,0.3c-0.1,0.5-0.3,1.1-0.5,1.7s-0.4,1.2-0.7,1.8s-0.5,1.2-0.7,1.8s-0.5,1.2-0.8,1.8h-2.1
			c0.2-0.6,0.3-1.2,0.4-1.9l0.4-2c0.1-0.7,0.2-1.3,0.4-1.9c0.1-0.6,0.2-1.2,0.3-1.7L109.6,45.2z"/>
		<path class="st1" d="M140.1,29c-2.1-0.1-4.2,0.8-5.6,2.4c-1.4,1.8-2.1,4.1-2,6.5c-0.1,2.3,0.6,4.7,2,6.5c1.4,1.6,3.5,2.4,5.6,2.3
			c1.8,0,3.6-0.3,5.3-0.9v2.4c-0.9,0.3-1.8,0.6-2.7,0.7c-1,0.1-2,0.2-3,0.2c-2.8,0.2-5.5-0.9-7.5-3c-1.7-2-2.6-4.7-2.6-8.3
			c0-2,0.4-4.1,1.2-5.9c0.8-1.6,2.1-2.9,3.6-3.8c1.7-1,3.7-1.4,5.6-1.4c2.1,0,4.1,0.4,6,1.3l-1.1,2.3
			C143.5,29.5,141.9,29.1,140.1,29z"/>
		<path class="st1" d="M173,37.8c0,3.5-0.9,6.3-2.7,8.3c-1.9,2.1-4.6,3.2-7.4,3c-2.8,0.2-5.6-0.9-7.5-3c-1.8-2-2.6-4.8-2.6-8.4
			s0.9-6.3,2.6-8.3s4.3-3,7.5-3c2.8-0.2,5.5,0.9,7.4,3C172.1,31.5,173,34.3,173,37.8z M155.7,37.8c0,2.9,0.6,5.1,1.8,6.6
			c2.9,3,7.6,3,10.6,0.1c0,0,0.1-0.1,0.1-0.1c1.2-1.5,1.8-3.7,1.8-6.7c0-2.9-0.6-5.1-1.8-6.6c-1.3-1.5-3.3-2.3-5.4-2.2
			c-2.1-0.1-4.1,0.7-5.4,2.3C156.3,32.7,155.6,34.9,155.7,37.8L155.7,37.8z"/>
		<path class="st1" d="M199.2,48.8H196l-11.8-18.2h-0.1l0.1,1.2c0.1,1.8,0.2,3.4,0.2,4.7v12.2h-2.6V26.9h3.2l0.7,1.1l7.2,11.1l3.8,6
			h0.1c0-0.2-0.1-1.1-0.1-2.6s-0.1-2.5-0.1-3.2V26.9h2.6L199.2,48.8z"/>
		<path class="st1" d="M216,48.8h-2.8V29.3h-6.9v-2.4h16.4v2.4H216V48.8z"/>
		<path class="st1" d="M236.3,48.8h-7.9v-1.6l2.6-0.6V29.1l-2.6-0.6v-1.6h7.9v1.6l-2.6,0.6v17.5l2.6,0.6V48.8z"/>
		<path class="st1" d="M261.9,48.8h-3.2L247,30.6h-0.1l0.1,1.2c0.1,1.8,0.2,3.4,0.2,4.7v12.2h-2.6V26.9h3.2l0.7,1.1l7.2,11.1l3.8,6
			h0.1c0-0.2-0.1-1.1-0.1-2.6s-0.1-2.5-0.1-3.2V26.9h2.6L261.9,48.8z"/>
		<path class="st1" d="M288.5,26.9v14.2c0.1,2.2-0.7,4.4-2.3,5.9c-1.7,1.5-4,2.2-6.3,2.1c-2.3,0.1-4.5-0.6-6.2-2.2
			c-1.5-1.6-2.3-3.7-2.2-5.9V26.9h2.8v14.2c-0.1,1.5,0.4,3,1.4,4.2c1.2,1.1,2.7,1.6,4.3,1.5c2.8,0.3,5.3-1.7,5.6-4.5
			c0-0.4,0-0.8,0-1.2V26.9H288.5z"/>
		<path class="st1" d="M310.5,48.8h-12.2V26.9h12.2v2.4H301v6.8h9v2.4h-9v7.8h9.5L310.5,48.8z"/>
	</g>
</g>
</svg>
