<?xml version="1.0" encoding="utf-8"?>
<!-- Generator: Adobe Illustrator 24.3.0, SVG Export Plug-In . SVG Version: 6.00 Build 0)  -->
<svg version="1.1" id="Layer_1" xmlns="http://www.w3.org/2000/svg" xmlns:xlink="http://www.w3.org/1999/xlink" x="0px" y="0px"
	 viewBox="0 0 307.2 66.3" style="enable-background:new 0 0 307.2 66.3;" xml:space="preserve">
<style type="text/css">
	.st0{fill:#602700;}
	.st1{enable-background:new    ;}
	.st2{fill:#E0E0D1;}
</style>
<path class="st0" d="M68.4,58.6h225.2c6.6,0,12-5.4,12-12V22.2c0-6.6-5.4-12-12-12H68.4c-6.6,0-12,5.4-12,12v24.5
	C56.4,53.2,61.8,58.6,68.4,58.6z"/>
<g class="st1">
	<path class="st2" d="M93.7,33.7c0,16.6-13.5,30.1-30.1,30.1S33.5,50.4,33.5,33.7S46.9,3.6,63.6,3.6S93.7,17.1,93.7,33.7"/>
</g>
<path class="st0" d="M66,19.1v3.2l6.1-0.2l0.2,6.3L60,28.5c-1.8,0-2,2.8-0.2,3.2h0.3l6.1-0.2c10.1-0.2,10.3,15.6,0.2,15.8v3.2
	l-6.1,0.2v-3.2l-6.1,0.2v-6.3l12.1-0.2c1.8,0,2-2.8,0.2-3.2h-0.3L60,38.2c-10.1,0.2-10.3-15.6-0.2-15.8v-3.2L66,19.1z"/>
</svg>
