<?xml version="1.0" encoding="utf-8"?>
<!-- Generator: Adobe Illustrator 24.3.0, SVG Export Plug-In . SVG Version: 6.00 Build 0)  -->
<svg version="1.1" id="Layer_1" xmlns="http://www.w3.org/2000/svg" xmlns:xlink="http://www.w3.org/1999/xlink" x="0px" y="0px"
	 viewBox="0 0 400.9 78.8" style="enable-background:new 0 0 400.9 78.8;" xml:space="preserve">
<style type="text/css">
	.st0{fill:#602700;}
	.st1{fill:#FFC49C;}
</style>
<g>
	<path class="st0" d="M400.9,21v38c0,10.4-8.8,18.8-19.6,18.8H20.6C9.8,77.8,1,69.4,1,59V21C1,10.6,9.8,2.2,20.6,2.2h360.7
		C392.1,2.2,400.9,10.6,400.9,21z"/>
</g>
<g>
	<path class="st1" d="M145.6,49.8c0.1,2.6-1,5-3,6.6c-2,1.6-4.8,2.4-8.5,2.4c-3.8,0-6.8-0.5-8.8-1.5v-3.9c1.4,0.6,2.9,1.1,4.5,1.4
		c1.5,0.3,3,0.5,4.6,0.5c1.9,0.1,3.8-0.4,5.4-1.4c1.2-0.9,1.9-2.3,1.8-3.8c0-0.9-0.2-1.8-0.7-2.6c-0.6-0.8-1.3-1.5-2.2-2
		c-1.5-0.8-3.1-1.5-4.7-2c-2.4-0.7-4.6-2.1-6.4-3.8c-1.3-1.6-2-3.6-1.9-5.7c-0.1-2.3,1-4.6,2.8-6c2.2-1.6,4.8-2.4,7.4-2.2
		c3.1,0,6.1,0.6,8.9,1.8l-1.2,3.5c-2.4-1.1-5.1-1.7-7.7-1.7c-1.6-0.1-3.2,0.3-4.5,1.2c-1.1,0.8-1.7,2.1-1.6,3.5
		c0,0.9,0.2,1.8,0.6,2.6c0.5,0.8,1.2,1.4,2,1.9c1.4,0.8,2.9,1.5,4.4,2c1.9,0.6,3.7,1.5,5.4,2.6c1.1,0.7,2,1.7,2.6,2.9
		C145.3,47.2,145.6,48.5,145.6,49.8z"/>
	<path class="st1" d="M168.1,58.4h-4.1V29.8H154v-3.6h24.1v3.6h-10L168.1,58.4z"/>
	<path class="st1" d="M207.5,58.4l-3.9-10h-12.8l-3.8,10H183l12.6-32.3h3.6l12.6,32.3H207.5z M202.4,44.9l-3.6-9.8l-1.5-4.8
		c-0.4,1.8-0.9,3.4-1.4,4.8l-3.6,9.8L202.4,44.9z"/>
	<path class="st1" d="M226.1,45.1v13.3h-4V26.2h8.9c4,0,7,0.8,8.9,2.3c1.9,1.5,2.9,3.8,2.9,6.9c0,4.3-2.1,7.2-6.4,8.6l8.8,14.4h-4.7
		l-7.8-13.3L226.1,45.1z M226.1,41.7h4.8c2.6,0,4.5-0.5,5.7-1.5c1.3-1.2,1.9-2.9,1.8-4.6c0.1-1.7-0.5-3.3-1.8-4.4
		c-1.2-0.9-3.2-1.4-5.9-1.4h-4.6V41.7z"/>
	<path class="st1" d="M266.1,58.4H262V29.8H252v-3.6h24.1v3.6h-10V58.4z"/>
</g>
</svg>
