<?xml version="1.0" encoding="utf-8"?>
<!-- Generator: Adobe Illustrator 24.3.0, SVG Export Plug-In . SVG Version: 6.00 Build 0)  -->
<svg version="1.1" id="Layer_1" xmlns="http://www.w3.org/2000/svg" xmlns:xlink="http://www.w3.org/1999/xlink" x="0px" y="0px"
	 viewBox="0 0 360 70.8" style="enable-background:new 0 0 360 70.8;" xml:space="preserve">
<style type="text/css">
	.st0{fill:#602700;}
	.st1{fill:#FFC49C;}
</style>
<g>
	<path class="st0" d="M360,17.6v35.6c0,9.7-7.9,17.6-17.6,17.6H17.6C7.9,70.8,0,62.9,0,53.2V17.6C0,7.9,7.9,0,17.6,0h324.8
		C352.1,0,360,7.9,360,17.6z"/>
	<g>
		<path class="st1" d="M111.6,43.3c0.1,2.3-0.9,4.5-2.7,5.9c-1.8,1.4-4.3,2.2-7.6,2.2c-2.7,0.1-5.4-0.3-7.9-1.4v-3.5
			c1.3,0.5,2.6,1,4,1.2c1.3,0.3,2.7,0.4,4.1,0.5c1.7,0.1,3.4-0.3,4.9-1.2c1.1-0.8,1.7-2.1,1.7-3.4c0-0.8-0.2-1.7-0.6-2.4
			c-0.5-0.7-1.2-1.3-2-1.7c-1.4-0.7-2.8-1.3-4.2-1.8C99,37,97,35.9,95.5,34.2c-1.2-1.4-1.8-3.3-1.7-5.1c-0.1-2.1,0.9-4.1,2.5-5.4
			c1.9-1.4,4.3-2.1,6.7-2c2.8,0,5.5,0.5,8,1.6l-1.1,3.1c-2.2-1-4.5-1.5-6.9-1.5c-1.4-0.1-2.8,0.3-4,1.1c-1,0.7-1.5,1.9-1.4,3.1
			c0,0.8,0.2,1.6,0.5,2.3c0.5,0.7,1.1,1.3,1.8,1.7c1.3,0.7,2.6,1.3,4,1.8c1.7,0.6,3.3,1.3,4.8,2.3c1,0.7,1.8,1.5,2.3,2.6
			C111.5,41,111.7,42.1,111.6,43.3z"/>
		<path class="st1" d="M144.7,22.2v18.7c0.2,2.9-0.9,5.7-3,7.8c-2,1.9-4.8,2.8-8.3,2.8c-3.5,0-6.2-1-8.1-2.9c-2-2.1-3-4.9-2.9-7.8
			V22.2h3.7v18.7c-0.1,2,0.6,4,1.9,5.5c1.3,1.3,3.2,1.9,5.7,1.9c2,0.1,4-0.6,5.5-1.9c1.4-1.5,2.1-3.5,1.9-5.5V22.2H144.7z"/>
		<path class="st1" d="M157.6,22.2h8.2c3.9,0,6.7,0.6,8.4,1.7c1.8,1.2,2.7,3.3,2.6,5.4c0.1,1.5-0.4,3-1.4,4.2
			c-1.1,1.2-2.5,2-4.1,2.2v0.2c1.9,0.2,3.6,1,4.9,2.3c1.1,1.3,1.7,2.9,1.6,4.6c0.1,2.3-0.9,4.5-2.6,6c-1.8,1.5-4.2,2.2-7.4,2.2
			h-10.2V22.2z M161.2,34.5h5.3c1.7,0.1,3.4-0.2,4.9-1.1c1.1-0.9,1.7-2.2,1.5-3.6c0.1-1.4-0.5-2.7-1.7-3.4c-1.6-0.8-3.5-1.2-5.3-1
			h-4.8L161.2,34.5z M161.2,37.5V48h5.8c1.8,0.1,3.6-0.3,5.2-1.3c1.2-1,1.8-2.5,1.7-4.1c0.1-1.5-0.6-2.9-1.8-3.8
			c-1.6-0.9-3.5-1.4-5.3-1.2L161.2,37.5z"/>
		<path class="st1" d="M201.9,51.1l-9.5-25.3h-0.2c0.2,2.1,0.3,4.7,0.3,7.8v17.5h-3.4V22.2h5.4l8.9,23.7h0.2l9.1-23.7h5.3v28.9h-3.6
			V33.3c0-2,0.1-4.5,0.3-7.5h-0.2l-9.6,25.3L201.9,51.1z"/>
		<path class="st1" d="M239.2,51.1h-10.4V49l3.4-0.8V25.1l-3.4-0.8v-2.1h10.4v2.1l-3.4,0.8v23.1l3.4,0.8V51.1z"/>
		<path class="st1" d="M259.3,51.1h-3.7V25.4h-9v-3.2h21.7v3.2h-9V51.1z"/>
	</g>
</g>
</svg>
