<?xml version="1.0" encoding="utf-8"?>
<!-- Generator: Adobe Illustrator 24.3.0, SVG Export Plug-In . SVG Version: 6.00 Build 0)  -->
<svg version="1.1" id="Layer_1" xmlns="http://www.w3.org/2000/svg" xmlns:xlink="http://www.w3.org/1999/xlink" x="0px" y="0px"
	 viewBox="0 0 307.2 66.3" style="enable-background:new 0 0 307.2 66.3;" xml:space="preserve">
<style type="text/css">
	.st0{fill:#602700;}
	.st1{enable-background:new    ;}
	.st2{fill:#E0E0D1;}
	.st3{opacity:0.2;fill:#231F20;}
	.st4{fill:#C75C5C;}
	.st5{fill:#4F5D73;}
</style>
<path class="st0" d="M68.4,58.6h225.2c6.6,0,12-5.4,12-12V22.2c0-6.6-5.4-12-12-12H68.4c-6.6,0-12,5.4-12,12v24.5
	C56.4,53.2,61.8,58.6,68.4,58.6z"/>
<g class="st1">
	<path class="st2" d="M93.7,33.7c0,16.6-13.5,30.1-30.1,30.1S33.5,50.4,33.5,33.7S46.9,3.6,63.6,3.6S93.7,17.1,93.7,33.7"/>
	<path class="st3" d="M63.6,14.9c-11.4,0-20.7,9.3-20.7,20.7s9.3,20.7,20.7,20.7s20.7-9.3,20.7-20.7S75,14.9,63.6,14.9z M63.6,18.7
		c9.3,0,17,7.6,17,17s-7.6,17-17,17s-17-7.6-17-17S54.2,18.7,63.6,18.7z"/>
	<path class="st4" d="M63.6,13c-11.4,0-20.7,9.3-20.7,20.7s9.3,20.7,20.7,20.7s20.7-9.3,20.7-20.7S75,13,63.6,13z M63.6,16.8
		c9.3,0,17,7.6,17,17s-7.6,17-17,17s-17-7.6-17-17S54.2,16.8,63.6,16.8"/>
	<path class="st3" d="M71.1,45c-0.5,0-1-0.2-1.3-0.6l-8.1-8.1v-8.3c0-2.5,3.8-2.5,3.8,0v6.8l7,7C73.6,43,72.8,45,71.1,45z"/>
	<path class="st5" d="M71.1,43.2c-0.5,0-1-0.2-1.3-0.6l-8.1-8.1v-8.3c0-2.5,3.8-2.5,3.8,0V33l7,7C73.6,41.1,72.8,43.2,71.1,43.2z"/>
</g>
</svg>
