<?xml version="1.0" encoding="utf-8"?>
<!-- Generator: Adobe Illustrator 24.3.0, SVG Export Plug-In . SVG Version: 6.00 Build 0)  -->
<svg version="1.1" id="Layer_1" xmlns="http://www.w3.org/2000/svg" xmlns:xlink="http://www.w3.org/1999/xlink" x="0px" y="0px"
	 viewBox="0 0 360 70.8" style="enable-background:new 0 0 360 70.8;" xml:space="preserve">
<style type="text/css">
	.st0{fill:#602700;}
	.st1{fill:#FFC49C;}
</style>
<path class="st0" d="M359.4,19.3v33.8c0,9.3-7.8,16.8-17.5,16.8h-323c-9.7,0-17.5-7.5-17.5-16.8V19.3C1.4,10,9.2,2.5,18.9,2.5h323
	C351.5,2.5,359.4,10,359.4,19.3z"/>
<g>
	<path class="st1" d="M53.8,34.2l5.7-10.8h3l-7.3,13.4v8.5h-2.8v-8.4l-7.3-13.5h3L53.8,34.2z"/>
	<path class="st1" d="M81.6,45.3H69.4V23.4h12.2v2.4h-9.5v6.8h8.9v2.4h-8.9v7.8h9.5V45.3z"/>
	<path class="st1" d="M102.9,39.4c0.1,1.7-0.7,3.4-2.1,4.5c-1.7,1.2-3.7,1.8-5.8,1.7c-2,0.1-4.1-0.2-6-1v-2.7c1,0.4,2,0.7,3,1
		c1,0.2,2.1,0.3,3.1,0.3c1.3,0.1,2.6-0.2,3.7-0.9c0.8-0.6,1.3-1.6,1.2-2.6c0-0.6-0.1-1.3-0.4-1.8c-0.4-0.6-0.9-1-1.5-1.3
		c-1-0.5-2.1-1-3.2-1.4c-1.6-0.5-3.1-1.4-4.3-2.6c-0.9-1.1-1.4-2.5-1.3-3.9c-0.1-1.6,0.7-3.1,1.9-4.1c1.5-1.1,3.3-1.6,5.1-1.5
		c2.1,0,4.1,0.4,6,1.2l-0.9,2.4c-1.6-0.7-3.4-1.1-5.2-1.2c-1.1-0.1-2.2,0.2-3.1,0.8c-0.7,0.6-1.1,1.4-1.1,2.3c0,0.6,0.1,1.3,0.4,1.8
		c0.3,0.5,0.8,1,1.4,1.3c1,0.5,2,1,3,1.3c1.3,0.4,2.5,1,3.6,1.8c0.7,0.5,1.4,1.2,1.8,2C102.7,37.7,102.9,38.6,102.9,39.4z"/>
	<path class="st1" d="M113.7,41.7l0.2,0.3c-0.1,0.5-0.3,1.1-0.5,1.7s-0.4,1.2-0.7,1.8s-0.5,1.2-0.7,1.8s-0.5,1.2-0.8,1.8h-2.1
		c0.2-0.6,0.3-1.2,0.4-1.9l0.4-2c0.1-0.7,0.2-1.3,0.4-1.9c0.1-0.6,0.2-1.2,0.3-1.7L113.7,41.7z"/>
	<path class="st1" d="M147.2,45.3h-12.2V23.4h12.2v2.4h-9.5v6.8h9v2.4h-9v7.8h9.5L147.2,45.3z"/>
	<path class="st1" d="M173.3,45.3h-3.2l-11.7-18.2h-0.1l0.1,1.2c0.1,1.8,0.2,3.4,0.2,4.7v12.2H156V23.4h3.2l0.7,1.1l7.2,11.1l3.8,6
		h0.1c0-0.2-0.1-1.1-0.1-2.6s-0.1-2.5-0.1-3.2V23.4h2.6L173.3,45.3z"/>
	<path class="st1" d="M200.8,34.1c0,3.6-1,6.4-3,8.3s-4.8,2.9-8.5,2.9h-6.1V23.4h6.7c3.4,0,6.1,0.9,8,2.8S200.8,30.7,200.8,34.1z
		 M197.9,34.2c0-2.8-0.7-4.9-2.1-6.3c-1.4-1.4-3.4-2.1-6.2-2.2H186v17.2h3C195,42.9,197.9,40,197.9,34.2z"/>
	<path class="st1" d="M231.2,33.7h7.6v10.8c-1.2,0.4-2.3,0.6-3.5,0.8c-1.4,0.2-2.8,0.3-4.2,0.3c-3.3,0-5.9-1-7.8-3s-2.7-4.8-2.7-8.3
		c-0.1-2.1,0.4-4.1,1.4-6c0.9-1.7,2.2-3,3.9-3.9c1.9-0.9,4-1.4,6.1-1.4c2.2,0,4.5,0.4,6.5,1.3l-1.1,2.4c-1.8-0.8-3.7-1.2-5.6-1.2
		c-2.3-0.1-4.5,0.7-6.1,2.4c-1.5,1.8-2.3,4.1-2.2,6.5c0,2.9,0.7,5.1,2.1,6.6c1.6,1.6,3.8,2.4,6.1,2.3c1.4,0,2.9-0.2,4.3-0.5v-6.5
		h-4.8L231.2,33.7z"/>
	<path class="st1" d="M261.7,45.3l-2.6-6.8h-8.7l-2.6,6.8H245l8.6-22h2.5l8.5,22L261.7,45.3z M258.3,36.1l-2.5-6.6l-1.1-3.3
		c-0.3,1.2-0.6,2.3-0.9,3.3l-2.5,6.6H258.3z"/>
	<path class="st1" d="M281.2,45.3L274,26.1h-0.1c0.1,1.6,0.2,3.6,0.2,5.9v13.3h-2.5V23.4h4.1l6.8,18h0.1l6.9-18h4v21.9h-2.7V31.8
		c0-1.5,0.1-3.4,0.2-5.7h-0.1l-7.3,19.2H281.2z"/>
	<path class="st1" d="M315.6,45.3h-12.2V23.4h12.2v2.4h-9.5v6.8h8.9v2.4h-8.9v7.8h9.5V45.3z"/>
</g>
</svg>
